# xmcd
#
# Track frame offsets:
#	182
#	24082
#	36832
#	52957
#	70807
#	84457
#	100507
#	117157
#	136432
#	154432
#	178282
#	195682
#	209932
#
# Disc length: 3056 seconds
#
# Revision: 1
# Processed by: cddbd v1.5.2PL0 Copyright (c) Steve Scherf et al.
# Submitted via: audiograbber 1.83.01
#
DISCID=b60bee0d
DTITLE=Various Artist - The 1999 Muster Blues Collection
DYEAR=1999
DGENRE=Blues
TTITLE0=Kevin Borich - I Can't Wait
TTITLE1=Phil Manning - Travellin' Highway Blues
TTITLE2=Jan Preston - Back Door Woman
TTITLE3=Paul O'Brien and The Thundershuffle - Blues From The Soul
TTITLE4=Lonesome Boogie - Born Right Out Of Here
TTITLE5=Uncle Bob's Jug Band - Red River Valley
TTITLE6=Black Dog - Bring Your Things
TTITLE7=Doc Span and Ross Williams - Dirty Dealer
TTITLE8=Lil' Fi - Loverman
TTITLE9=Psycho Zydeco - Barragoot
TTITLE10=Third Degree - It's Alright
TTITLE11=The Hipshooters - Little By Little
TTITLE12=Ray Beadle and The King Bros - Once A Week
EXTD=
EXTT0=
EXTT1=
EXTT2=
EXTT3=
EXTT4=
EXTT5=
EXTT6=
EXTT7=
EXTT8=
EXTT9=
EXTT10=
EXTT11=
EXTT12=
PLAYORDER=
